<?xml version="1.0" encoding="UTF-8" standalone="no"?>
<!-- Created with Inkscape (http://www.inkscape.org/) -->

<svg
   width="297mm"
   height="210mm"
   viewBox="0 0 297 210"
   version="1.1"
   id="svg1"
   xml:space="preserve"
   inkscape:version="1.3.2 (091e20ef0f, 2023-11-25, custom)"
   sodipodi:docname="logo.svg"
   inkscape:export-filename="logo-white.png"
   inkscape:export-xdpi="96"
   inkscape:export-ydpi="96"
   xmlns:inkscape="http://www.inkscape.org/namespaces/inkscape"
   xmlns:sodipodi="http://sodipodi.sourceforge.net/DTD/sodipodi-0.dtd"
   xmlns="http://www.w3.org/2000/svg"
   xmlns:svg="http://www.w3.org/2000/svg"><sodipodi:namedview
     id="namedview1"
     pagecolor="#e0e0e0"
     bordercolor="#eeeeee"
     borderopacity="1"
     inkscape:showpageshadow="0"
     inkscape:pageopacity="0"
     inkscape:pagecheckerboard="0"
     inkscape:deskcolor="#d1d1d1"
     inkscape:document-units="mm"
     inkscape:zoom="1.3782829"
     inkscape:cx="553.22461"
     inkscape:cy="422.26456"
     inkscape:window-width="2554"
     inkscape:window-height="1244"
     inkscape:window-x="1920"
     inkscape:window-y="1248"
     inkscape:window-maximized="1"
     inkscape:current-layer="layer1"
     inkscape:export-bgcolor="#ffffffff" /><defs
     id="defs1" /><g
     inkscape:label="Layer 1"
     inkscape:groupmode="layer"
     id="layer1"><path
       style="fill:#000000;stroke-width:1.36952"
       d="m 144.35831,195.83624 c -1.40804,-0.35118 -3.17544,-1.15909 -3.17544,-1.45152 0,-0.18177 0.23769,-0.86787 0.52822,-1.52465 l 0.52824,-1.19415 -1.32135,-1.26689 -1.32134,-1.26688 -1.65002,0.70126 c -1.93213,0.82116 -1.8577,0.86744 -3.02567,-1.88072 -0.50723,-1.19347 -0.62186,-1.70287 -0.39982,-1.77689 0.17119,-0.0571 0.79702,-0.36062 1.3907,-0.67457 l 1.07946,-0.57082 v -1.86913 -1.86912 l -1.31901,-0.53022 c -0.72545,-0.29161 -1.38141,-0.59262 -1.45769,-0.6689 -0.16768,-0.16768 0.97634,-3.73838 1.30215,-4.06419 0.13799,-0.13801 0.88189,-0.011 1.85352,0.31758 l 1.62301,0.54809 0.3962,-0.61123 c 0.21791,-0.33616 0.81317,-1.06856 1.3228,-1.62754 l 0.9266,-1.01631 -0.59757,-1.143 c -0.32866,-0.62863 -0.60275,-1.23283 -0.60906,-1.34264 -0.007,-0.10984 0.93162,-0.65668 2.08432,-1.21524 2.33947,-1.13366 2.24591,-1.15504 3.29064,0.75199 0.43091,0.78658 0.44178,0.78992 2.56079,0.78992 h 2.12806 l 0.82096,-1.14315 c 0.45153,-0.62873 0.98705,-1.14316 1.19007,-1.14316 0.45881,0 3.01035,1.4239 3.40619,1.90086 0.22223,0.26777 0.2032,0.4916 -0.08,0.94003 -0.80067,1.26822 -0.75556,1.62861 0.38937,3.11107 0.60027,0.77721 1.22483,1.41357 1.38788,1.41409 0.16307,5.3e-4 0.82987,-0.22766 1.48177,-0.50709 0.65191,-0.27945 1.32624,-0.50808 1.49853,-0.50808 0.30695,0 1.19516,1.87675 1.66723,3.52273 0.23575,0.82201 0.22403,0.83767 -1.08267,1.44605 -0.72654,0.33827 -1.47721,0.61615 -1.66816,0.61752 -0.23575,0.001 -0.29801,0.18591 -0.19399,0.57406 0.0842,0.31437 0.15474,1.14793 0.15664,1.85235 l 0.004,1.28076 1.39622,0.68478 1.39624,0.68478 -0.61694,1.63905 c -1.09262,2.9028 -0.9121,2.77572 -2.76306,1.94524 l -1.59841,-0.71716 -1.16185,1.17353 -1.16184,1.17352 0.60918,1.37893 c 0.33503,0.75839 0.5209,1.46432 0.41304,1.56874 -0.17319,0.16765 -4.00544,1.75199 -4.23777,1.75199 -0.05,0 -0.34609,-0.62873 -0.65799,-1.39719 l -0.56707,-1.3972 -1.81226,6e-4 -1.81225,6.1e-4 -0.72975,1.39659 c -0.72377,1.38517 -0.82924,1.45571 -1.81061,1.21092 z m 5.88978,-7.95766 c 2.3452,-0.87963 3.89059,-3.09092 3.89059,-5.567 0,-4.59706 -4.54735,-7.28955 -8.79852,-5.20966 -4.1789,2.04455 -4.09253,8.19686 0.14525,10.3463 1.48806,0.75475 3.42999,0.93023 4.76268,0.43036 z m -2.8962,-2.96147 c -0.93379,-0.17555 -1.85042,-1.49221 -1.85042,-2.658 0,-0.8309 0.16763,-1.18969 0.89621,-1.91828 0.8161,-0.81608 0.99212,-0.88335 1.96878,-0.75239 1.99322,0.26729 3.01966,2.18548 2.11037,3.94383 -0.51543,0.99674 -1.90759,1.6137 -3.12494,1.38484 z M 127.21091,113.45937 82.889158,99.382103 m -2.68107,-1.526311 c -3.67786,0 -4.43301,-0.69343 -4.43301,-4.070661 v -1.963477 l -1.65123,-0.15481 c -0.90818,-0.08514 -3.880391,-0.0811 -6.604921,0.009 -4.424647,0.146304 -4.989397,0.214113 -5.288023,0.634928 -0.819168,1.15435 -2.103042,1.480619 -5.815908,1.47799 -3.168341,-0.0022 -3.629111,-0.06115 -4.821652,-0.616388 -1.579434,-0.735372 -2.708481,-2.166348 -3.291429,-4.171623 -0.789326,-2.715181 0.564971,-5.772287 3.212779,-7.252324 1.373556,-0.767773 1.457365,-0.781029 4.953691,-0.78348 3.416171,-0.0023 3.602932,0.0248 4.733402,0.689369 0.647297,0.380526 1.244612,0.868305 1.327364,1.083953 0.131185,0.341867 0.98913,0.383403 6.698193,0.324278 l 6.547734,-0.0678 0.0734,-2.534514 c 0.10411,-3.594817 0.20987,-3.689355 4.12749,-3.689355 h 2.96916 l 0.16413,-1.396452 c 0.14992,-1.275614 0.0993,-1.486031 -0.58579,-2.431678 -1.66729,-2.301616 -1.88497,-4.670484 -0.65132,-7.087508 1.18941,-2.330352 2.86427,-3.310348 5.65754,-3.310348 1.36147,0 2.02317,0.142839 3.06368,0.661352 2.227336,1.109931 3.77862,3.756616 3.513566,5.994597 -0.16356,1.381019 -1.26559,3.605347 -2.096896,4.232413 -0.4252,0.320728 -0.50009,0.548573 -0.34451,1.048105 0.10929,0.351059 0.26757,0.952658 0.35165,1.336886 0.14955,0.683433 0.19273,0.698629 1.989776,0.700015 2.300053,0.0018 3.481003,0.323033 4.269113,1.161352 0.54525,0.579972 0.62638,0.931145 0.70426,3.048812 l 0.0881,2.39334 h 8.612683 8.6127 l 0.005,-10.097909 c 0.004,-5.98235 0.11258,-10.559445 0.26717,-11.23033 0.91692,-3.978856 4.56475,-8.003358 8.30002,-9.157069 1.47085,-0.454298 2.56124,-0.528293 9.31156,-0.631893 l 7.64561,-0.11734 0.0742,-2.065822 0.0742,-2.06582 -1.23537,-1.306233 c -1.5378,-1.625991 -2.46203,-3.011748 -2.96774,-4.449662 -0.48559,-1.380768 -1.35574,-7.797101 -1.5682,-11.563783 -0.14656,-2.597998 -0.10806,-2.967421 0.48806,-4.675473 1.44127,-4.1301 4.91559,-6.940109 9.51691,-7.697198 5.17237,-0.851047 10.358,1.874208 12.61633,6.630378 0.73272,1.543155 0.78166,1.825815 0.74758,4.318603 -0.0534,3.9057 -0.97605,11.3174 -1.62472,13.051138 -0.51508,1.376625 -2.65467,4.369339 -3.43668,4.80698 -0.27548,0.15416 -0.36389,0.782245 -0.36389,2.584739 v 2.381092 l 7.68457,0.09815 c 7.14995,0.09132 7.78918,0.136938 9.18827,0.655822 4.00444,1.485108 6.95747,4.651298 8.0657,8.64788 0.41473,1.495682 0.46499,2.768986 0.46499,11.780345 v 10.103407 h 8.6127 8.61268 l 0.0881,-2.434485 c 0.0861,-2.382543 0.10572,-2.450295 0.91764,-3.175443 0.80395,-0.718028 0.91148,-0.740959 3.47471,-0.740959 h 2.64508 l 0.17349,-1.388552 c 0.16047,-1.284331 0.11682,-1.460706 -0.582,-2.349828 -1.63322,-2.078078 -2.0616,-3.810522 -1.45084,-5.867216 0.87003,-2.9297 3.07587,-4.62039 6.02823,-4.62039 2.0668,0 3.26925,0.452472 4.58993,1.727144 1.50325,1.450895 2.05533,2.692282 2.0563,4.623743 9.3e-4,1.82784 -0.42856,2.902875 -1.6919,4.234835 -0.75137,0.792186 -0.75881,0.826461 -0.4543,2.095792 l 0.30957,1.290436 2.19747,0.0014 c 4.3048,0.0027 4.86485,0.484124 4.86485,4.181231 v 2.422274 h 6.43362 6.43363 l 0.61585,-0.659225 c 1.27133,-1.360843 1.83565,-1.502748 5.83632,-1.467635 4.26573,0.03744 4.99491,0.274862 6.77486,2.205868 2.30137,2.496699 2.08919,6.562933 -0.4691,8.989884 -1.44151,1.367504 -2.34382,1.600597 -6.19593,1.600597 -3.71937,0 -4.33566,-0.158228 -5.83835,-1.498947 l -0.76211,-0.679962 -6.44079,0.09637 -6.44078,0.09637 0.169,1.35261 c 0.21088,1.687797 -0.16652,3.147677 -1.0218,3.952564 -0.5536,0.521 -0.98128,0.70927 -2.73046,0.74556 l -2.08515,0.0433 c -5.47579,-0.0205 -9.88487,-0.004 -13.33394,-0.0433 -1.18825,-0.0137 -2.42371,-0.27911 -2.74992,-0.465 -0.86185,-0.49117 -1.31217,-1.810877 -1.31217,-3.845434 v -1.785397 h -8.63721 -8.63721 v 1.571026 c 0,1.887168 -0.66802,3.448535 -1.74853,4.086805 -0.62134,0.36703 -1.41364,0.43902 -4.83208,0.43902 h -4.08888 v 2.540348 2.54036 h -20.95791 -20.95793 v -2.54036 -2.540348 h -4.1721 c -4.16327,0 -4.17382,-10e-4 -4.98823,-0.68673 -1.07433,-0.903987 -1.50916,-2.012765 -1.50916,-3.848168 v -1.502792 l -5.32098,-0.185698 c -2.92655,-0.102139 -6.81329,-0.1027 -8.63721,-0.0012 l -3.316223,0.184452 v 1.648012 c 0,1.743635 -0.43372,3.000093 -1.30906,3.792264 -0.3797,0.34362 -1.07428,0.49642 -2.703439,0.59468 m 67.021142,7.880318 6.59073,7.72847 m 0,0 v 5.20772 5.20773 h -1.14316 -1.14317 v 5.46175 5.46177 l -0.1915,3.8101 -0.18889,11.08187 -0.18889,11.08186 -1.74202,1.83389 -1.74201,1.83389 -0.0693,4.78209 -0.0693,4.78209 -0.75244,-1.08641 c -0.92865,-1.34082 -4.41543,-4.61091 -6.04267,-5.66722 l -1.20667,-0.7833 v -10.88073 -10.88075 h 3.69312 3.69312 l -0.0442,-1.90526 -0.0442,-1.90527 h -5.17316 -5.17316 l -2.5e-4,12.38423 -2.3e-4,12.38422 h -3.17534 -3.17533 l 1.3e-4,-7.81158 1.3e-4,-7.8116 h -1.39719 -1.3972 l -6e-4,8.31966 -6e-4,8.31967 -1.40284,0.73301 c -1.54337,0.80645 -4.32239,3.27895 -5.70895,5.07928 -0.48902,0.63494 -0.97486,1.15878 -1.07966,1.16407 -0.10476,0.005 -0.19052,-2.06355 -0.19052,-4.59741 v -4.60702 l -1.90527,-2.09862 -1.90526,-2.09862 v -10.82281 -10.8228 l 1.2e-4,-3.81156 v -3.51816 c 0,-1.935 -0.0739,-4.39279 -0.1643,-5.46177 l -0.16428,-1.94359 h -1.10589 -1.10588 v -5.20773 -5.20772 m 13.97195,31.24738 3.42947,-0.12696 v -1.84188 -1.84191 l -5.14421,1.4e-4 -5.14422,1.4e-4 v 8.84177 8.84176 l 1.58772,1.84961 1.58772,1.84963 0.12696,-8.72261 0.12709,-8.72261 z m 18.8008,15.43265 1.55102,-1.84175 -0.0631,-4.12808 -0.0631,-4.12808 h -1.60257 -1.60257 v 5.96985 c 0,3.2834 0.0516,5.96983 0.11477,5.96983 0.0631,0 0.81267,-0.82879 1.66571,-1.84177 z M 144.6113,132.92696 v -1.87248 l -2.03228,-0.1583 c -1.11775,-0.0871 -3.43265,-0.15898 -5.14421,-0.15982 l -3.11194,-0.001 v 2.03229 2.03228 l 5.14422,2e-5 h 5.14421 z m 16.89337,-0.007 v -1.87969 l -3.11194,-0.17194 c -1.71157,-0.0945 -4.02646,-0.13463 -5.14422,-0.089 l -2.03228,0.0828 -0.0742,1.96878 -0.0742,1.96877 h 5.2184 5.21842 z m 1.98037,-14.44209 0.0752,-1.71473 h -15.76121 -15.76182 v 1.78018 1.78019 l 15.6867,-0.0655 15.68669,-0.0655 z m -36.27191,-4.96208 -0.12996,-3.99256 0.0746,-1.84176 0.0746,-1.84176 h 2.12638 2.12639 l 0.81118,1.31834 c 1.10691,1.79896 3.31561,3.86283 5.04107,4.71045 l 1.43135,0.70315 h 8.76421 8.76424 l 1.73126,-0.82 c 1.97355,-0.93475 4.0175,-2.86219 5.00024,-4.71524 l 0.63464,-1.1967 h 2.47729 2.47728 v 1.90527 l -0.004,5.7591 m -29.98773,-4.35443 c -1.20862,-0.63902 -3.54125,-2.75666 -3.54125,-3.21487 0,-0.31415 1.76148,-0.35968 12.45361,-0.32186 l 12.45361,0.044 -0.42055,0.66297 c -0.7755,1.22255 -1.45664,1.81004 -2.98259,2.57256 l -1.51643,0.75778 -7.77102,-0.011 c -7.10637,-0.011 -7.84836,-0.0522 -8.67538,-0.48938 z m 25.9339,-31.615652 V 56.19502 h -3.5565 -3.5565 v 0.643284 c 0,0.353806 -0.36133,1.582702 -0.80297,2.73088 -0.68013,1.768224 -1.05905,2.340735 -2.47684,3.742233 -2.08857,2.064556 -3.54948,2.663121 -6.50054,2.663383 -1.67498,1.49e-4 -2.28848,-0.119847 -3.48938,-0.682508 -2.78361,-1.304197 -5.09391,-4.361335 -5.771,-7.636568 l -0.30198,-1.460704 h -3.41146 -3.41148 v 21.209879 21.209873 l 14.54353,0.0677 c 7.99895,0.0373 15.48664,0.0953 16.63933,0.12915 l 2.09579,0.0614 z m 42.11056,18.502296 c -210.8099616,-127.237098 -210.8099616,-127.237098 0,0 z m -2.95691,-4.593857 c 0.0177,-1.432125 0.039,-2.946813 0.0474,-3.365971 0.008,-0.419158 -0.005,-2.276793 -0.0322,-4.128076 l -0.0474,-3.36597 h -1.43772 -1.43771 l 0.17251,6.529497 c 0.12504,4.731011 0.0874,6.705312 0.1034,6.951999 0.568,-0.0022 1.12288,-0.02365 1.64683,-0.0215 l 0.95263,0.0038 z M 82.761048,87.187345 v -6.604922 h -1.39719 -1.39719 v 6.604922 6.604922 h 1.39719 1.39719 z m 12.02624,2.984916 c 0.0911,-1.991002 0.16603,-4.963218 0.16654,-6.604921 l 9.3e-4,-2.984917 h -1.524224 -1.524196 l 9.3e-4,2.984917 c 5.1e-4,1.641703 -0.09086,4.613919 1.68e-4,6.604921 l 0.0035,3.608921 1.519582,0.01108 h 1.356911 z M 126.70919,75.103543 V 56.414818 l -0.57158,0.166125 c -1.03957,0.302147 -3.17776,1.911803 -3.87389,2.916323 -1.56243,2.254595 -1.51759,1.728584 -1.59712,18.735329 l -0.0727,15.559672 h 3.05768 3.05767 z m 48.46652,3.129052 -0.0727,-15.559671 -0.66077,-1.408787 c -1.0824,-2.307689 -3.11341,-4.255328 -4.9069,-4.705466 l -0.6562,-0.164694 7.8e-4,14.317033 c 4.2e-4,7.874368 0.0756,16.288984 0.167,18.699146 l 0.16623,4.382111 h 3.01769 3.01768 z m 40.69993,8.95475 v -6.604922 h -1.3972 -1.39719 v 6.604922 6.604922 h 1.39719 1.3972 z M 59.117322,89.058352 c 0.773907,-0.983863 0.725717,-2.852043 -0.09646,-3.739178 -0.57754,-0.623176 -0.777154,-0.672184 -2.737867,-0.672184 -2.373949,0 -3.079223,0.311659 -3.62097,1.600093 -0.391687,0.931549 -0.137613,2.027474 0.669124,2.886206 0.507427,0.540131 0.773068,0.594411 2.909037,0.594411 2.236834,0 2.376103,-0.0324 2.877125,-0.669348 z m 183.413608,0 c 0.89874,-1.14257 0.57674,-3.398436 -0.60192,-4.216945 -0.53088,-0.368656 -4.31663,-0.215902 -4.90758,0.198021 -1.07727,0.754545 -1.1725,3.092186 -0.17105,4.198774 0.37671,0.416263 0.7954,0.489498 2.79851,0.489498 2.24214,0 2.38087,-0.03222 2.88204,-0.669348 z M 88.466768,70.535781 c 1.58659,-0.752881 1.82098,-2.292236 0.54356,-3.569659 -1.04683,-1.046822 -1.86009,-1.104066 -2.92732,-0.206049 -1.25704,1.057728 -0.92329,3.146573 0.60945,3.814384 0.96214,0.419208 0.80204,0.422699 1.77431,-0.03867 z m 120.519722,0.111725 c 0.84467,-0.29445 1.5544,-1.33165 1.5544,-2.271566 0,-0.787227 -1.57386,-2.27353 -2.40747,-2.27353 -0.8494,0 -2.16552,1.262629 -2.1642,2.07625 0.001,0.809421 0.89535,2.210439 1.58836,2.489065 0.3135,0.126037 0.5815,0.236399 0.59558,0.245256 0.0141,0.0089 0.38909,-0.110602 0.83333,-0.265475 z M 149.49235,61.51419 c 1.57066,-0.592165 3.6272,-3.422612 3.63405,-5.001619 0.003,-0.53855 -0.10025,-0.57158 -1.77577,-0.57158 h -1.77825 v -2.667378 -2.667374 h -1.65122 -1.65123 v 2.667374 2.667372 h -1.77824 c -1.77825,0 -1.77825,0 -1.77825,0.716554 0,0.394104 0.31436,1.33721 0.69859,2.095792 1.24511,2.458198 3.80275,3.619531 6.08032,2.760852 z m -5.25471,-23.350332 c 0,-0.136774 -0.29839,-1.137042 -0.66309,-2.222811 -0.7673,-2.284365 -1.04779,-5.314856 -0.63313,-6.840765 0.68732,-2.52931 3.00403,-4.763835 5.77387,-5.569051 3.08337,-0.896359 0.3914,-2.160712 -2.85822,-1.342444 -1.54401,0.388783 -3.66405,2.343907 -4.5931,4.235803 -0.64025,1.303771 -0.70983,1.706988 -0.70983,4.112855 0,2.473023 0.0592,2.792209 0.8116,4.380691 0.94947,2.004379 2.02444,3.494408 2.521,3.494408 0.193,0 0.3509,-0.111903 0.3509,-0.248686 z"
       id="path1"
       sodipodi:nodetypes="csscccsssscccsssccsscscssscssscsssssscsccccsscccsssscccsccssssssssssscccscscscssscssscsscssssssssssssccccssscccssscsssssscsssscccssscscsssssscsscccsssssscccssscssscccssscccccccscscsscsscccccccccccccccccsscccccccccccccccccccsscsccccccssccccccccccccccccccccccccsscccccccccccccccccccccccccccccccccccccsscccsscccccccccssccccccccsssssscccccssccsscccccccccsccccccccccccsscccsscccsccsssccccccsscsccccccccccccscsssssssssssssssssssssssssssscscccccccsssssssssssss" /></g></svg>
